<svg xmlns="http://www.w3.org/2000/svg" width="13" height="13" viewBox="0 0 13 13">
  <path id="Контур_109" data-name="Контур 109" d="M-4515.26,1112.958a6.5,6.5,0,0,0,7.925,4.653,6.5,6.5,0,0,0,4.654-7.925,6.5,6.5,0,0,0-7.925-4.653A6.5,6.5,0,0,0-4515.26,1112.958Zm4.7-6.634a4.84,4.84,0,0,1,5.761,3.082.161.161,0,0,1-.073.194.163.163,0,0,1-.2-.037,4.321,4.321,0,0,0-4.381-1.409,4.307,4.307,0,0,0-3.08,5.245,4.322,4.322,0,0,0,.538,1.23.161.161,0,0,1-.026.2.162.162,0,0,1-.069.038.161.161,0,0,1-.137-.027,4.764,4.764,0,0,1-1.78-2.644A4.825,4.825,0,0,1-4510.556,1106.324Z" transform="translate(4515.471 -1104.822)" fill="#d30000"/>
</svg>
