<?xml version="1.0" encoding="utf-8"?>
<!-- Generator: Adobe Illustrator 18.1.1, SVG Export Plug-In . SVG Version: 6.00 Build 0)  -->
<svg version="1.1" id="Layer_1" xmlns="http://www.w3.org/2000/svg" xmlns:xlink="http://www.w3.org/1999/xlink" x="0px" y="0px"
	 viewBox="0 0 90 30" enable-background="new 0 0 90 30" xml:space="preserve">
<g>
	<g>
		<linearGradient id="SVGID_1_" gradientUnits="userSpaceOnUse" x1="106.1604" y1="5.0689" x2="14.8247" y2="5.0689">
			<stop  offset="0" style="stop-color:#EEB11E"/>
			<stop  offset="0.9247" style="stop-color:#A26C29"/>
		</linearGradient>
		<path fill="url(#SVGID_1_)" d="M82.5,8.4c-3.7,2.3-9.9,0.4-13.8-1.5c-0.4-0.2-0.6-0.3-0.6-0.3c0-0.1,1,0.3,2.5,0.7
			C75.1,8.5,81.8,9.5,83.5,5c0.2-0.4,0.7-1.4,0.3-3c-0.1-0.6-0.6-1.7,0.3-1.2c0.5,0.2,1.2,1,1.4,2.3C85.7,5,84.4,7.3,82.5,8.4z"/>
	</g>
	<g>
		<linearGradient id="SVGID_2_" gradientUnits="userSpaceOnUse" x1="106.1604" y1="19.744" x2="14.8247" y2="19.744">
			<stop  offset="0" style="stop-color:#EEB11E"/>
			<stop  offset="0.9247" style="stop-color:#A26C29"/>
		</linearGradient>
		<path fill="url(#SVGID_2_)" d="M47.4,21.6c0.8-2.5,0.3-5.2-1.1-7.3c-0.6-0.9-1.1-1.3-1-1.4c0,0,0.6,0.3,1.4,1.1
			c2.7,2.8,3.1,7.4,1.2,10.6c-1.1,1.8-3.4,2.8-2.4,0.8C46.1,24.2,46.9,23.3,47.4,21.6z"/>
	</g>
	<g>
		<linearGradient id="SVGID_3_" gradientUnits="userSpaceOnUse" x1="106.1604" y1="19.2495" x2="14.8247" y2="19.2495">
			<stop  offset="0" style="stop-color:#EEB11E"/>
			<stop  offset="0.9247" style="stop-color:#A26C29"/>
		</linearGradient>
		<path fill="url(#SVGID_3_)" d="M49.3,15.9c0-0.1-0.5-0.9-0.5-0.9c0.1-0.1,0.8,0.6,0.8,0.7c2.1,2.2,3,6.1,2,7.6
			c-0.5,0.6-1,0.5-1.2-0.2C50.1,21.6,51.1,19.5,49.3,15.9z"/>
	</g>
	<g>
		<linearGradient id="SVGID_4_" gradientUnits="userSpaceOnUse" x1="106.1604" y1="18.299" x2="14.8247" y2="18.299">
			<stop  offset="0" style="stop-color:#EEB11E"/>
			<stop  offset="0.9247" style="stop-color:#A26C29"/>
		</linearGradient>
		<path fill="url(#SVGID_4_)" d="M52.6,17.2c-0.9-1.1-0.2-0.6,0.3-0.3c1.9,1.1,2.9,1.2,4.2,1.5c0.6,0.2,1.1,0.6,1.1,1
			C58,20.9,54.4,19.5,52.6,17.2z"/>
	</g>
	<g>
		<linearGradient id="SVGID_5_" gradientUnits="userSpaceOnUse" x1="106.1604" y1="16.5835" x2="14.8247" y2="16.5835">
			<stop  offset="0" style="stop-color:#EEB11E"/>
			<stop  offset="0.9247" style="stop-color:#A26C29"/>
		</linearGradient>
		<path fill="url(#SVGID_5_)" d="M22.1,16.4c-0.6,0.1-3.1,0.3-5.4,0.9c-2.3,0.5-4.4,1.3-4.4,1.2c-0.1-0.2,4.8-3.1,9.6-3.8
			c1.3-0.2,2.5,0.1,2.5,0.6C24.4,15.8,23.4,16.2,22.1,16.4z"/>
	</g>
	<linearGradient id="SVGID_6_" gradientUnits="userSpaceOnUse" x1="106.1604" y1="15.4956" x2="14.8247" y2="15.4956">
		<stop  offset="0" style="stop-color:#EEB11E"/>
		<stop  offset="0.9247" style="stop-color:#A26C29"/>
	</linearGradient>
	<path fill="url(#SVGID_6_)" d="M38,1C17,1,0,16.4,0,30C3,19,15.8,11,24.1,9c17.2-4.1,29.6,7.5,35.8,8.7C75,20.7,87.7,12.8,89,2.1
		C81.3,21.9,61.2,1,38,1z M34.6,4.2c7.9,1,15.5,4.7,23.6,7.6C44.9,8.6,33.5,2.2,19.5,8.4c-8,3.9-12.5,9-14.9,11.1
		c2.4-3.6,5.7-7.2,9.5-9.9c3.8-2.7,7.5-4.3,11.1-5c0.5-0.1,1-0.3,1.4-0.4c15.9-3.9,27.7,3.3,40.9,9.1C56.3,9.3,47,3.9,34.6,4.2z"/>
	<linearGradient id="SVGID_7_" gradientUnits="userSpaceOnUse" x1="106.1604" y1="19.0328" x2="14.8247" y2="19.0328">
		<stop  offset="0" style="stop-color:#EEB11E"/>
		<stop  offset="0.9247" style="stop-color:#A26C29"/>
	</linearGradient>
	<path fill="url(#SVGID_7_)" d="M31.9,8.8c-9,0.1-20,4.6-25.6,11.9c3.1-2,9.3-9,23-8.6c7,0.2,10.3,3.5,11,6.9c1,5-4,10-10.4,8.6
		c3.4,3,11.1,1.5,14.3-3.9C47.8,17.5,44.2,8.7,31.9,8.8z"/>
	<linearGradient id="SVGID_8_" gradientUnits="userSpaceOnUse" x1="106.1604" y1="21.8899" x2="14.8289" y2="21.8899">
		<stop  offset="0" style="stop-color:#EEB11E"/>
		<stop  offset="0.9247" style="stop-color:#A26C29"/>
	</linearGradient>
	<path fill="url(#SVGID_8_)" d="M6.9,21.4c-3.1,1.7-5.3,5-6,8.5c7.9-8.9,28.7,0.6,30.4-16.1C26.4,21.7,14.3,17.3,6.9,21.4z M2.2,28
		c5.6-8,11.7-4.3,20.4-6.9C14.9,24.2,8.7,21.7,2.2,28z"/>
	<linearGradient id="SVGID_9_" gradientUnits="userSpaceOnUse" x1="106.1604" y1="21.0727" x2="14.8247" y2="21.0727">
		<stop  offset="0" style="stop-color:#EEB11E"/>
		<stop  offset="0.9247" style="stop-color:#A26C29"/>
	</linearGradient>
	<path fill="url(#SVGID_9_)" d="M33.1,24.6c2.7,1.5,4.4-0.5,4.8-2.1c0.7-3-1.3-6.5-5.1-5.2C30,18.2,29.5,22.5,33.1,24.6z M35.5,21.1
		c1.6,0,1.6,2.6,0,2.6C33.9,23.7,33.9,21.1,35.5,21.1z"/>
	<linearGradient id="SVGID_10_" gradientUnits="userSpaceOnUse" x1="106.1604" y1="3.142" x2="14.8247" y2="3.142">
		<stop  offset="0" style="stop-color:#EEB11E"/>
		<stop  offset="0.9247" style="stop-color:#A26C29"/>
	</linearGradient>
	<path fill="url(#SVGID_10_)" d="M80.5,4.5c1.4-1.8-0.6-5-4-4c-0.6,0.2-1.8,1.6-1.6,3.1C75.5,7.5,79.4,5.9,80.5,4.5z M79.9,2.1
		c0.1,1-1.5,1.2-1.6,0.2C78.1,1.2,79.8,1.1,79.9,2.1z"/>
</g>
</svg>
