<?xml version="1.0" encoding="utf-8"?>
<!-- Generator: Adobe Illustrator 18.1.1, SVG Export Plug-In . SVG Version: 6.00 Build 0)  -->
<svg version="1.1" id="Layer_1" xmlns="http://www.w3.org/2000/svg" xmlns:xlink="http://www.w3.org/1999/xlink" x="0px" y="0px"
	 viewBox="0 0 35 35" enable-background="new 0 0 35 35" xml:space="preserve">
<g>
	<path fill="#010101" d="M32.2,14.4h-0.5l-0.9-7.6c-0.1-1.2-0.7-2.2-1.4-3c-0.9-0.9-2-1.3-3.2-1.3h-5.9c-0.5,0-0.9,0.4-0.9,0.9
		s0.4,0.9,0.9,0.9h0.1v1.5h-6.2V4.3h0.1c0.5,0,0.9-0.4,0.9-0.9s-0.4-0.9-0.9-0.9H8.4C7.1,2.5,6,2.9,5.2,3.8c-0.8,0.8-1.3,1.9-1.4,3
		l-0.9,7.6H2.2c-1.2,0-2.2,1-2.2,2.2V18c0,0.9,0.6,1.7,1.4,2.1l1.2,10c0.3,2,1.7,3.4,3.5,3.4h22c1.8,0,3.3-1.4,3.5-3.4L33,20
		c0.9-0.3,1.4-1.1,1.4-2.1v-1.3C34.5,15.4,33.5,14.4,32.2,14.4z M8.7,18.4H2.2c-0.2,0-0.4-0.2-0.4-0.4v-1.3c0-0.2,0.2-0.4,0.4-0.4
		h4.3L8.7,18.4z M11.6,16.2l-1.3,1.3L9,16.2H11.6z M11.6,18.8l2.2-2.2l2.2,2.2L13.8,21L11.6,18.8z M15.9,16.2h2.6l-1.3,1.3
		L15.9,16.2z M16.9,24.1L15,22.2l2.2-2.2l2.2,2.2l-1.9,1.9C17.4,24.3,17.1,24.3,16.9,24.1z M20.7,21l-2.2-2.2l2.2-2.2l2.2,2.2
		L20.7,21z M10.5,20.2l5.2,5.2c0.8,0.8,2.3,0.8,3.1,0l5.2-5.2h7.3L30,29.8c-0.1,0.9-0.7,1.9-1.8,1.9h-22c-1.1,0-1.7-1-1.8-1.9
		l-1.2-9.6H10.5z M25.4,16.2l-1.3,1.3l-1.3-1.3H25.4z M28.3,14.4l-0.9-7.2c-0.1-0.4-0.2-0.8-0.5-1.1c-0.2-0.2-0.5-0.4-0.9-0.4h-4
		V4.3h4c0.7,0,1.4,0.3,2,0.8c0.5,0.5,0.8,1.2,0.9,2l0.9,7.4H28.3z M7.9,14.4l0.9-6.9h16.9l0.9,6.9H7.9z M12.4,5.8h-4
		C8,5.8,7.7,5.9,7.5,6.2C7.2,6.4,7.1,6.8,7,7.2l-0.9,7.2H4.6l0.9-7.4c0.1-0.8,0.4-1.5,0.9-2c0.5-0.5,1.2-0.8,2-0.8h4V5.8z
		 M32.7,16.7V18c0,0.2-0.2,0.4-0.4,0.4h-6.5l2.2-2.2h4.3C32.5,16.2,32.7,16.4,32.7,16.7z"/>
	<path fill="#010101" d="M24.6,30.8h3.7c0.5,0,0.9-0.4,0.9-0.9c0-0.5-0.4-0.9-0.9-0.9h-3.7c-0.5,0-0.9,0.4-0.9,0.9
		C23.7,30.4,24.1,30.8,24.6,30.8z"/>
	<circle fill="#010101" cx="21.6" cy="29.9" r="0.9"/>
	<circle fill="#010101" cx="17.2" cy="3.4" r="0.9"/>
</g>
</svg>
