<?xml version="1.0" encoding="utf-8"?>
<!-- Generator: Adobe Illustrator 18.1.1, SVG Export Plug-In . SVG Version: 6.00 Build 0)  -->
<svg version="1.1" id="Layer_1" xmlns="http://www.w3.org/2000/svg" xmlns:xlink="http://www.w3.org/1999/xlink" x="0px" y="0px"
	 viewBox="0 0 230 92" enable-background="new 0 0 230 92" xml:space="preserve">
<g>
	<path fill="#D40000" d="M153.6,37.9h-1.3l-2.4-20c-0.3-3.2-1.8-5.8-3.7-7.9c-2.4-2.4-5.3-3.4-8.4-3.4h-15.5c-1.3,0-2.4,1.1-2.4,2.4
		s1.1,2.4,2.4,2.4h0.3v3.9h-16.3v-3.9h0.3c1.3,0,2.4-1.1,2.4-2.4s-1.1-2.4-2.4-2.4H91.1c-3.4,0-6.3,1.1-8.4,3.4
		c-2.1,2.1-3.4,5-3.7,7.9l-2.4,20h-1.8c-3.2,0-5.8,2.6-5.8,5.8v3.7c0,2.4,1.6,4.5,3.7,5.5l3.2,26.3c0.8,5.3,4.5,8.9,9.2,8.9h57.8
		c4.7,0,8.7-3.7,9.2-8.9l3.7-26.5c2.4-0.8,3.7-2.9,3.7-5.5v-3.4C159.7,40.5,157.1,37.9,153.6,37.9z M91.9,48.4H74.8
		c-0.5,0-1.1-0.5-1.1-1.1v-3.4c0-0.5,0.5-1.1,1.1-1.1h11.3L91.9,48.4z M99.5,42.6L96.1,46l-3.4-3.4H99.5z M99.5,49.4l5.8-5.8
		l5.8,5.8l-5.8,5.8L99.5,49.4z M110.8,42.6h6.8l-3.4,3.4L110.8,42.6z M113.4,63.3l-5-5l5.8-5.8l5.8,5.8l-5,5
		C114.7,63.9,113.9,63.9,113.4,63.3z M123.4,55.2l-5.8-5.8l5.8-5.8l5.8,5.8L123.4,55.2z M96.6,53.1l13.7,13.7c2.1,2.1,6,2.1,8.1,0
		l13.7-13.7h19.2l-3.4,25.2c-0.3,2.4-1.8,5-4.7,5H85.3c-2.9,0-4.5-2.6-4.7-5l-3.2-25.2C77.4,53.1,96.6,53.1,96.6,53.1z M135.8,42.6
		l-3.4,3.4l-3.4-3.4H135.8z M143.4,37.9L141,18.9c-0.3-1.1-0.5-2.1-1.3-2.9c-0.5-0.5-1.3-1.1-2.4-1.1h-10.5v-3.7h10.5
		c1.8,0,3.7,0.8,5.3,2.1c1.3,1.3,2.1,3.2,2.4,5.3l2.4,19.5h-3.9V37.9z M89.8,37.9l2.4-18.1h44.4l2.4,18.1H89.8z M101.6,15.2H91.1
		c-1.1,0-1.8,0.3-2.4,1.1c-0.8,0.5-1.1,1.6-1.3,2.6L85,37.9h-3.9l2.4-19.5c0.3-2.1,1.1-3.9,2.4-5.3S89,11,91.1,11h10.5V15.2z
		 M155,43.9v3.4c0,0.5-0.5,1.1-1.1,1.1h-17.1l5.8-5.8h11.3C154.4,42.6,155,43.1,155,43.9z"/>
	<path fill="#D40000" d="M133.7,81h9.7c1.3,0,2.4-1.1,2.4-2.4s-1.1-2.4-2.4-2.4h-9.7c-1.3,0-2.4,1.1-2.4,2.4S132.3,81,133.7,81z"/>
	<circle fill="#D40000" cx="125.8" cy="78.6" r="2.4"/>
	<circle fill="#D40000" cx="114.2" cy="8.9" r="2.4"/>
</g>
</svg>
