<?xml version="1.0" encoding="utf-8"?>
<!-- Generator: Adobe Illustrator 18.1.1, SVG Export Plug-In . SVG Version: 6.00 Build 0)  -->
<svg version="1.1" id="Layer_1" xmlns="http://www.w3.org/2000/svg" xmlns:xlink="http://www.w3.org/1999/xlink" x="0px" y="0px"
	 viewBox="0 0 14 14" enable-background="new 0 0 14 14" xml:space="preserve">
<path fill="#D31F26" d="M1.2,9.1c0.9,3.5,4.5,5.6,7.9,4.7c3.5-0.9,5.6-4.5,4.7-7.9c-0.9-3.5-4.5-5.6-7.9-4.7
	C2.4,2.1,0.3,5.7,1.2,9.1z M5.9,2.5c2.4-0.6,4.9,0.7,5.8,3.1c0,0.1,0,0.2-0.1,0.2c-0.1,0-0.2,0-0.2,0C10.3,4.5,8.6,3.9,7,4.3
	C4.7,4.9,3.3,7.3,3.9,9.6c0.1,0.4,0.3,0.8,0.5,1.2c0,0.1,0,0.2,0,0.2c0,0,0,0-0.1,0c0,0-0.1,0-0.1,0c-0.9-0.7-1.5-1.6-1.8-2.6
	C1.8,5.8,3.3,3.2,5.9,2.5z"/>
</svg>
