<?xml version="1.0" encoding="utf-8"?>
<!-- Generator: Adobe Illustrator 18.1.1, SVG Export Plug-In . SVG Version: 6.00 Build 0)  -->
<svg version="1.1" id="Layer_1" xmlns="http://www.w3.org/2000/svg" xmlns:xlink="http://www.w3.org/1999/xlink" x="0px" y="0px"
	 viewBox="0 0 230 92" enable-background="new 0 0 230 92" xml:space="preserve">
<g>
	<g>
		<linearGradient id="SVGID_1_" gradientUnits="userSpaceOnUse" x1="77.8658" y1="108.5904" x2="37.8658" y2="2.5904">
			<stop  offset="0" style="stop-color:#EEB11E"/>
			<stop  offset="0.9247" style="stop-color:#A26C29"/>
		</linearGradient>
		<path fill="url(#SVGID_1_)" d="M66.4,53.2c0.1,0,0.2,0.1,0.2,0c0.1-0.1,11.6-8.7,17.2-23.5c2.9-7.8,2.8-15.2-0.3-20.6
			c-2.1-3.6-5.3-6-9.2-6.6c-1.3-0.2-2.5-0.3-3.8-0.3c-11.2,0-20.4,8.3-27.4,24.7c-3.5,8.2-5.7,17.3-6.6,27.2c0,0.2,0,0.4,0,0.5
			c-1-1.5-4.6-9.9-4.8-15.4c-0.1-2,0.3-3.4,1.1-4.1c0.1-0.1,0.1-0.2,0-0.2c-0.1-0.1-0.2-0.1-0.2-0.1c-0.1,0.1-9.5,5.3-12.7,14.1
			c-2.7,7.5-0.9,13.5,3.3,22c0.3,0.7,0.6,1.3,1,1.9c3.3,6.6,5.3,10.6,2.4,14.5c0,0.1,0,0.1,0,0.2c0,0.1,0.1,0.1,0.1,0.1
			c0,0,0.1,0,0.2,0c1.2,0,7.6-0.4,11.1-9.3c0.3-0.8,0.6-1.6,0.9-2.4c2.3-5.8,3.3-8.4,6.4-8.6c2.5-0.2,3.8,3.1,5.1,6.6
			c0.5,1.3,1,2.6,1.6,3.8c1.6,3.2,4.6,9.2,10.4,9.2c1.8,0,3.9-0.6,6-1.8c9.4-5.4,13.8-17.8,13.9-25c0-0.1-0.1-0.2-0.2-0.2
			c-0.1,0-0.2,0-0.2,0.1c0,0-0.9,3.1-3.8,3.1c-0.4,0-0.9-0.1-1.4-0.2c-2.6-0.8-5.2-2.9-8.4-5.6c-1.2-1-2.4-2-3.8-3.1
			c-0.3-0.3-0.7-0.5-1-0.8c-2.9-2.3-5.4-4.3-8.2-4.3c-2.1,0-4.2,1.1-6.6,3.3c-3,2.8-4.5,5.1-5.2,6.3c-0.1,0.2-0.2,0.4-0.3,0.5
			c-0.2-1.5,1.6-10.6,8.2-18.9c2.4-3.1,6.2-5,9.8-5c2.6,0,4.8,1.1,6.1,3c1.4,2.2,2.5,6.4-0.9,14.5C66.4,53.1,66.4,53.1,66.4,53.2z"
			/>
		<linearGradient id="SVGID_2_" gradientUnits="userSpaceOnUse" x1="57.8479" y1="116.1443" x2="17.8479" y2="10.1443">
			<stop  offset="0" style="stop-color:#EEB11E"/>
			<stop  offset="0.9247" style="stop-color:#A26C29"/>
		</linearGradient>
		<path fill="url(#SVGID_2_)" d="M22.4,38.9c0.2-5.5-5.2-7.2-5.3-7.2c-0.1,0-0.2,0-0.2,0.1c0,0.1,0,0.2,0.1,0.2c0,0,1.2,0.5,0.7,1.9
			c-0.3,0.9-1.2,1.5-2.4,1.5c-0.4,0-0.7-0.1-1.1-0.2c-0.5-0.2-1.2-0.7-1.5-1.4c-0.3-0.6-0.2-1.3,0.2-2.1c0.6-1.1,1.8-1.7,3.5-1.7
			c1,0,2,0.2,2.9,0.6c0.2,0.1,0.5,0.2,0.8,0.4c1.9,0.9,5.4,2.5,9.3,2.5c2.5,0,4.8-0.7,6.7-2.2c6.4-4.8,10.3-13.9,5.4-22
			c-3.1-5.1-9-8.5-14.8-8.5c-4,0-7.4,1.6-10,4.6c-3.8,4.4-0.9,10.3,0.1,12.2c-1-0.5-3.2-1.5-5.6-1.5c-2.8,0-4.9,1.3-6.4,3.8
			c-1.2,2-1.5,3.8-0.8,5.5c1,2.5,3.8,3.9,4.9,4.3L2.1,32C2.1,32,2,32.1,2,32.2c0,0.1,0.1,0.1,0.1,0.2c2.7,0.7,6.5,1.9,7,2.3
			c-0.1,0.1-0.2,0.2-0.4,0.3c-0.8,0.5-2.3,1.6-2.5,4.7c-0.1,1.7,0.5,3.3,1.7,4.5c1.4,1.5,3.6,2.5,5.8,2.6c0.1,0,0.2,0,0.3,0h0
			C16,46.7,22.2,46.1,22.4,38.9z"/>
	</g>
	<g>
		<path fill="#FFFFFF" d="M124.1,52.9c0.1-0.3,0-0.5-0.1-0.8c-0.2-0.3-0.4-0.4-0.8-0.4c-0.4,0-0.7,0.4-0.8,0.6
			c-0.1,0.2-0.3,0.4-0.4,0.5c-0.1,0.1-0.2,0.1-0.4,0.1c-0.5,0-0.8-0.2-1.1-0.7c-0.4-0.5-0.8-1.4-1.4-2.6c-0.5-1.2-1-2.2-1.5-3
			c-0.5-0.8-1.1-1.5-1.9-2.1c-0.5-0.4-1-0.6-1.7-0.8c0.2-0.1,0.3-0.3,0.5-0.4c0.5-0.5,1-1.1,1.3-1.9c0.1-0.2,0.2-0.5,0.4-0.9
			c0.4-0.9,0.7-1.7,1.1-2.2c0.3-0.4,0.7-0.7,1.3-0.7c0.2,0,0.4,0,0.6,0.4c0.2,0.4,0.3,0.7,0.3,1.2c0,0.3,0.2,0.5,0.6,0.5
			c0.3,0,0.6-0.1,1-0.3c0.3-0.2,0.7-0.5,0.9-0.9c0.3-0.4,0.4-0.9,0.4-1.4c0-0.8-0.3-1.5-0.9-2.1c-0.6-0.6-1.4-1-2.5-1c0,0,0,0,0,0
			c-0.8,0-1.6,0.3-2.2,0.9c-0.6,0.5-1,1.1-1.4,1.8c-0.3,0.6-0.7,1.5-1.1,2.4c-0.3,0.8-0.5,1.3-0.7,1.6c-0.4,0.8-0.9,1.4-1.5,1.7
			c-0.5,0.4-1.1,0.5-1.7,0.5h-1V39c0-0.5,0.1-0.9,0.1-1.2c0-0.2,0.2-0.4,0.4-0.6c0.2-0.2,0.6-0.2,1.1-0.2c0.4,0,0.6,0,0.8-0.1
			c0.3-0.2,0.4-0.6,0.4-0.9c0-0.3-0.1-0.5-0.2-0.7c-0.2-0.2-0.4-0.4-0.7-0.4c0,0,0,0,0,0c-1.3,0.1-2.6,0.1-3.8,0.1
			c-1.1,0-2.3,0-3.6-0.1c-0.3,0-0.6,0.1-0.7,0.4c-0.1,0.2-0.2,0.4-0.2,0.7c0,0.3,0.1,0.6,0.3,0.8c0.2,0.1,0.4,0.2,0.6,0.2h0.2
			c0.5,0,0.9,0.1,1.1,0.2c0.2,0.2,0.3,0.3,0.4,0.6c0.1,0.3,0.1,0.7,0.1,1.1v12c0,0.5-0.1,0.9-0.1,1.2c-0.1,0.2-0.2,0.4-0.4,0.6
			c-0.2,0.2-0.6,0.2-1.1,0.2c-0.3,0-0.6,0-0.7,0.1c-0.3,0.2-0.4,0.6-0.4,0.9c0,0.3,0.1,0.5,0.2,0.7c0.2,0.2,0.4,0.4,0.7,0.4
			c0,0,0,0,0,0c2.7-0.1,4.9-0.1,7.3,0c0.3,0,0.6-0.1,0.7-0.4c0.1-0.2,0.2-0.4,0.2-0.7c0-0.4-0.1-0.7-0.3-0.8
			c-0.2-0.1-0.4-0.2-0.7-0.2h-0.2c-0.5,0-0.9-0.1-1.1-0.2c-0.2-0.2-0.3-0.3-0.4-0.6c-0.1-0.3-0.1-0.7-0.1-1.1v-5.6h0.4
			c0.8,0,1.4,0.2,2,0.6c0.6,0.4,1,0.9,1.4,1.4c0.4,0.6,0.8,1.4,1.3,2.4c0.5,1.1,1,2.1,1.4,2.8c0.5,0.7,1.1,1.4,1.9,1.9
			c0.8,0.5,1.8,0.8,2.9,0.8c0.7,0,1.4-0.2,2.1-0.5C123.6,54.3,124,53.7,124.1,52.9z"/>
		<path fill="#FFFFFF" d="M138.8,40.3L138.8,40.3l-0.6,0c-0.9,0-1.5,0.1-1.9,0.1c-0.8,0-1.8,0-2.9-0.1c-0.3,0-0.5,0.1-0.7,0.4
			c-0.1,0.2-0.2,0.4-0.2,0.6c0,0.4,0.1,0.6,0.3,0.7c0.1,0.1,0.3,0.2,0.6,0.2h0.2c0.5,0,0.8,0.1,0.8,0.1c0,0,0.1,0,0.1,0.1
			c0,0,0,0.2-0.1,0.6l-2.7,7.1c-0.4-1-1-2.3-1.6-4c-0.3-0.9-0.7-1.9-1.2-3c-0.5-1.1-1.1-1.9-1.9-2.3c-0.7-0.4-1.6-0.6-2.6-0.6
			c-0.2,0-0.3,0-0.5,0c-0.1,0-0.2,0-0.4,0c-0.2,0-0.4,0.1-0.6,0.1c-0.2,0.1-0.4,0.3-0.4,0.8c0,0.3,0,0.5,0.1,0.6
			c0.1,0.1,0.2,0.3,0.6,0.4c0.1,0,0.2,0,0.3,0.1c0.5,0.1,0.9,0.2,1.1,0.5c0.3,0.3,0.6,0.8,0.9,1.5c0.5,1.1,1.2,2.8,2,5
			c0.9,2.5,1.6,4.2,2,5c0.1,0.3,0.1,0.5,0.1,0.6c0,0.1,0,0.2-0.1,0.5c-1.1,2.4-2.3,3.7-3.4,3.7c-0.3,0-0.6-0.1-0.8-0.3
			c-0.2-0.2-0.3-0.5-0.3-0.8c0-0.4,0.1-0.5,0.1-0.6c0.2-0.2,0.4-0.4,0.4-0.6c0-0.4-0.4-0.6-0.5-0.7c-0.5-0.3-1.2-0.5-2.4,0.1
			c-0.6,0.3-1,1-1,2.1c0,0.9,0.4,1.6,1.2,2.3c0.7,0.6,1.6,0.9,2.6,0.9c1.5,0,2.7-0.7,3.8-2c1-1.3,1.9-2.8,2.6-4.5
			c0.5-1.2,1.3-3.1,2.3-5.6l2.2-5.5c0.2-0.6,0.5-1,0.9-1.2c0.3-0.2,0.9-0.3,1.5-0.3c0.2,0,0.4-0.1,0.6-0.2c0.2-0.2,0.3-0.5,0.3-0.8
			c0-0.2-0.1-0.4-0.2-0.6C139.3,40.4,139.1,40.3,138.8,40.3z"/>
		<path fill="#FFFFFF" d="M153.4,41c-1-0.6-2.2-1-3.5-1c-0.8,0-1.6,0.2-2.4,0.6c-0.6,0.3-1.1,0.6-1.6,0.9v-0.7c0-0.7-0.5-1-0.9-1
			c0,0-0.1,0-0.2,0c-0.1,0-0.4,0.1-0.8,0.2c-0.8,0.3-1.9,0.6-3.1,0.8c-0.3,0-0.5,0.2-0.6,0.4c-0.1,0.2-0.2,0.4-0.2,0.6
			c0,0.4,0.1,0.7,0.4,0.8c0.2,0.1,0.4,0.2,0.7,0.2c0.6,0,0.8,0.1,0.9,0.2c0.1,0.1,0.2,0.2,0.2,0.4c0,0.2,0,0.6,0,1.1v13.1
			c0,0.5,0,0.8-0.1,1c0,0.2-0.1,0.3-0.3,0.4c-0.1,0.1-0.3,0.2-0.8,0.2c-0.3,0-0.6,0-0.7,0.1c-0.3,0.2-0.3,0.5-0.4,0.8
			c0,0.2,0.1,0.5,0.2,0.7c0.2,0.2,0.4,0.3,0.7,0.3c0,0,0,0,0,0c1.2-0.1,2.2-0.1,3.1-0.1c0.9,0,2,0,3.1,0.1c0,0,0,0,0,0
			c0.3,0,0.5-0.1,0.7-0.4c0.1-0.2,0.2-0.4,0.2-0.7c0-0.2-0.1-0.6-0.3-0.7c-0.1-0.1-0.3-0.2-0.6-0.2h-0.2c-0.5,0-0.8-0.1-0.8-0.2
			c-0.1-0.1-0.2-0.3-0.3-0.4c0-0.2-0.1-0.6-0.1-1v-3.1c0.4,0.2,0.7,0.3,1.2,0.5c0.6,0.2,1.3,0.3,2.2,0.3c1.2,0,2.5-0.3,3.6-1
			c1.1-0.6,2-1.5,2.7-2.7c0.7-1.2,1-2.5,1-4c0-1.4-0.3-2.8-0.9-3.9C155.2,42.6,154.4,41.6,153.4,41z M152.8,47.7
			c0,1.5-0.3,2.9-0.9,4c-0.6,1.1-1.5,1.7-2.7,1.7c-0.8,0-1.4-0.2-2-0.6c-0.5-0.4-0.9-0.8-1.1-1.3v-7.8c0.4-0.4,0.8-0.7,1.3-1
			c0.4-0.2,1-0.4,1.6-0.4c1.3,0,2.2,0.5,2.9,1.5C152.4,44.9,152.8,46.2,152.8,47.7z"/>
		<path fill="#FFFFFF" d="M171.3,50.6c-0.5-0.2-0.9-0.1-1.1,0.2c-0.5,0.7-1,1.2-1.6,1.6c-0.5,0.3-1.2,0.5-2,0.5
			c-1.1,0-2-0.5-2.7-1.5c-0.7-1-1.1-2.3-1.1-3.9c0-1.6,0.3-3,0.8-4.1c0.5-1,1.4-1.5,2.8-1.5c0.6,0,1,0.1,1.4,0.4
			c0.3,0.2,0.5,0.6,0.5,1.1c0,0.2-0.1,0.4-0.2,0.6c-0.1,0.2-0.3,0.4-0.4,0.5c-0.3,0.2-0.4,0.4-0.4,0.6c0,0.4,0.3,0.6,0.6,0.8
			c0.3,0.3,0.7,0.4,1.2,0.4c0.7,0,1.4-0.3,1.8-0.9c0.4-0.5,0.6-1.2,0.6-1.9c0-1.3-0.5-2.2-1.6-2.8c-1-0.5-2.2-0.8-3.5-0.8
			c0,0,0,0,0,0c-1.3,0-2.6,0.4-3.7,1c-1.1,0.6-2,1.5-2.7,2.7c-0.7,1.1-1,2.4-1.1,3.9c0,2.3,0.6,4.1,1.8,5.5c1.2,1.4,3,2.1,5.1,2.1
			c1.1,0,2.1-0.3,3.2-0.9c1-0.6,1.9-1.4,2.6-2.4c0.1-0.2,0.1-0.3,0.1-0.4c0-0.2,0-0.3-0.1-0.5C171.6,50.8,171.5,50.7,171.3,50.6z"/>
		<path fill="#FFFFFF" d="M189.6,52c-0.3,0-0.5,0.3-0.7,0.5c-0.1,0.2-0.3,0.3-0.4,0.4c-0.1,0.1-0.2,0.1-0.4,0.1
			c-0.1,0-0.3,0-0.5-0.4c-0.2-0.3-0.5-0.9-0.8-1.6c-0.4-0.8-0.7-1.6-1-2.1c-0.3-0.6-0.8-1.1-1.4-1.6c-0.4-0.3-0.8-0.5-1.4-0.6
			c0.3-0.3,0.7-0.8,1-1.4c0.1-0.2,0.2-0.5,0.4-0.9c0.1-0.4,0.4-0.7,0.6-1c0.2-0.3,0.5-0.4,0.9-0.4c0.2,0,0.4,0.1,0.5,0.3
			c0.2,0.2,0.2,0.5,0.2,0.9c0,0.2,0.1,0.4,0.3,0.5c0.3,0.1,0.7,0,1.2-0.2c0.3-0.2,0.6-0.4,0.8-0.7c0.2-0.3,0.4-0.7,0.4-1.2
			c0-0.7-0.3-1.3-0.8-1.8c-0.5-0.5-1.2-0.8-2.1-0.8c-0.7,0-1.3,0.3-1.7,0.6c-0.4,0.4-0.8,0.8-1.1,1.2c-0.3,0.4-0.5,1-0.8,1.7
			c-0.1,0.2-0.2,0.4-0.3,0.6c-0.1,0.2-0.2,0.4-0.3,0.7c-0.5,1-1.1,1.5-1.9,1.5h-1v-2.5c0-0.5,0-0.9,0.1-1.1c0-0.1,0.1-0.3,0.3-0.4
			c0.1-0.1,0.3-0.2,0.9-0.2c0.3,0,0.6,0,0.7-0.1c0.3-0.2,0.3-0.5,0.4-0.8c0-0.2-0.1-0.5-0.2-0.6c-0.2-0.2-0.4-0.4-0.7-0.4
			c0,0,0,0,0,0c-1.2,0.1-2.2,0.1-3.1,0.1c-0.8,0-1.8,0-2.9-0.1c-0.3,0-0.5,0.1-0.7,0.4c-0.1,0.2-0.2,0.4-0.2,0.7
			c0,0.4,0.1,0.6,0.3,0.7c0.1,0.1,0.3,0.2,0.6,0.2l0.3,0c0.4,0,0.5,0.1,0.6,0.1c0.1,0.1,0.2,0.3,0.2,0.7c0,0.5,0,0.7,0,0.9l0,7.4
			c0,0.7,0,1.1-0.1,1.3c0,0.1,0,0.2-0.2,0.3c0,0-0.2,0.1-0.6,0.1l-0.2,0c-0.3,0-0.5,0-0.7,0.1c-0.3,0.2-0.3,0.5-0.4,0.8
			c0,0.2,0.1,0.5,0.2,0.6c0.2,0.2,0.4,0.4,0.7,0.4c0,0,0,0,0,0c1.1-0.1,2.1-0.1,2.9-0.1c0.9,0,2,0,3.2,0.1c0.3,0,0.5-0.1,0.7-0.4
			c0.1-0.2,0.2-0.4,0.2-0.7c0-0.2-0.1-0.6-0.3-0.7c-0.1-0.1-0.3-0.2-0.6-0.2h-0.2c-0.6,0-0.8-0.1-0.9-0.2c-0.1-0.1-0.2-0.3-0.3-0.4
			c0-0.2-0.1-0.6-0.1-1.1v-3.3h0.5c0.5,0,1,0.1,1.3,0.4c0.4,0.3,0.7,0.6,0.9,1c0.2,0.4,0.5,1,0.9,1.8c0.3,0.8,0.7,1.5,1,2
			c0.3,0.5,0.8,1,1.3,1.3c0.5,0.3,1.2,0.5,2,0.5l0.1,0c0.6,0,1.2-0.2,1.8-0.5c0.6-0.3,1-0.8,1.1-1.5c0.1-0.3,0-0.5-0.1-0.7
			C190.1,52.1,189.9,52,189.6,52z"/>
		<path fill="#FFFFFF" d="M206.6,42.8c0-0.1,0.1-0.3,0.3-0.4c0.1-0.1,0.3-0.2,0.9-0.2c0.3,0,0.6,0,0.7-0.1c0.3-0.2,0.3-0.5,0.4-0.8
			c0-0.2-0.1-0.5-0.2-0.6c-0.2-0.2-0.4-0.4-0.7-0.4h0l-1.3,0.1c-0.6,0.1-1.2,0.3-1.8,0.6c-0.6,0.3-1.3,1-2,1.9l-5,6.9l0-5.9
			c0-0.7,0-1.1,0.1-1.3c0-0.1,0-0.2,0.2-0.3c0,0,0.2-0.1,0.6-0.1l0.2,0c0.3,0,0.5,0,0.7-0.1c0.3-0.2,0.3-0.5,0.4-0.8
			c0-0.2-0.1-0.5-0.2-0.6c-0.2-0.2-0.4-0.4-0.7-0.4c0,0,0,0,0,0c-1.1,0.1-2.1,0.1-2.9,0.1c-0.9,0-2,0-3.1-0.1
			c-0.3,0-0.5,0.1-0.7,0.4c-0.1,0.2-0.2,0.4-0.2,0.7c0,0.4,0.1,0.6,0.3,0.7c0.1,0.1,0.4,0.2,0.6,0.2h0.2c0.4,0,0.7,0.1,0.9,0.2
			c0.2,0.1,0.2,0.4,0.2,0.7v8.2c0,0.6,0,1,0,1.1c0,0.1-0.1,0.3-0.2,0.4c-0.1,0.1-0.3,0.2-0.9,0.2c-0.3,0-0.6,0-0.7,0.1
			c-0.3,0.2-0.3,0.5-0.4,0.8c0,0.2,0.1,0.5,0.2,0.6c0.3,0.5,1,0.4,2.2,0.3c0.6,0,1.2-0.2,1.8-0.6c0.6-0.4,1.3-0.9,1.8-1.6l5.1-6.8
			l0,5.5c0,0.7,0,1.1-0.1,1.3c0,0.1,0,0.2-0.2,0.3c0,0-0.2,0.1-0.6,0.1l-0.2,0c-0.3,0-0.5,0-0.7,0.1c-0.3,0.2-0.3,0.5-0.4,0.8
			c0,0.2,0.1,0.5,0.2,0.6c0.2,0.2,0.4,0.4,0.7,0.4c0,0,0,0,0,0c1.1-0.1,2.1-0.1,2.9-0.1c0.9,0,2,0,3.1,0.1c0,0,0,0,0,0
			c0.3,0,0.5-0.1,0.7-0.4c0.1-0.2,0.2-0.4,0.2-0.7c0-0.2-0.1-0.6-0.3-0.7c-0.1-0.1-0.3-0.2-0.6-0.2h-0.2c-0.6,0-0.8-0.1-0.9-0.2
			c-0.1-0.1-0.2-0.2-0.3-0.4c0-0.2-0.1-0.6-0.1-1.1v-7.5C206.6,43.4,206.6,43,206.6,42.8z"/>
		<path fill="#FFFFFF" d="M216.4,37.8c1,0.5,2.2,0.8,3.6,0.8c1.3,0,2.5-0.3,3.5-0.8c1.1-0.6,1.7-1.4,1.7-2.4c0-0.5-0.2-0.9-0.6-1.2
			c-0.4-0.3-0.8-0.5-1.4-0.5c-0.5,0-0.8,0.3-1,0.5c-0.2,0.2-0.3,0.6-0.4,1.1c-0.1,0.5-0.3,1-0.6,1.2c-0.2,0.2-0.6,0.4-1.3,0.4
			c-0.5,0-0.9-0.1-1.1-0.2c-0.2-0.1-0.4-0.3-0.5-0.5c-0.1-0.2-0.2-0.6-0.3-0.9c-0.1-0.4-0.2-0.8-0.4-1c-0.1-0.2-0.4-0.5-1-0.5
			c-0.6,0-1.1,0.2-1.4,0.5c-0.4,0.3-0.5,0.7-0.5,1.2C214.7,36.4,215.3,37.2,216.4,37.8z"/>
		<path fill="#FFFFFF" d="M226.9,53h-0.2c-0.6,0-0.8-0.1-0.9-0.2c-0.1-0.1-0.2-0.3-0.3-0.4c0-0.2-0.1-0.6-0.1-1.1v-7.5
			c0-0.5,0-0.9,0.1-1.1c0-0.1,0.1-0.3,0.3-0.4c0.1-0.1,0.3-0.2,0.9-0.2c0.3,0,0.6,0,0.7-0.1c0.3-0.2,0.3-0.5,0.4-0.8
			c0-0.2-0.1-0.5-0.2-0.6c-0.2-0.2-0.4-0.4-0.7-0.4h0l-1.4,0.1c-0.6,0.1-1.2,0.3-1.8,0.6c-0.6,0.3-1.3,1-2,1.9l-5,6.9l0-5.9
			c0-0.7,0-1.1,0.1-1.3c0-0.1,0-0.2,0.2-0.3c0,0,0.2-0.1,0.6-0.1l0.2,0c0.3,0,0.5,0,0.7-0.1c0.3-0.2,0.3-0.5,0.4-0.8
			c0-0.2-0.1-0.5-0.2-0.6c-0.2-0.2-0.4-0.4-0.7-0.4c0,0,0,0,0,0c-1.1,0.1-2.1,0.1-2.9,0.1c-0.9,0-2,0-3.1-0.1
			c-0.3,0-0.5,0.1-0.7,0.4c-0.1,0.2-0.2,0.4-0.2,0.7c0,0.4,0.1,0.6,0.3,0.7c0.1,0.1,0.4,0.2,0.6,0.2h0.2c0.4,0,0.7,0.1,0.9,0.2
			c0.2,0.1,0.2,0.4,0.2,0.7v8.2c0,0.6,0,1,0,1.1c0,0.1,0,0.2-0.2,0.4c-0.1,0.1-0.3,0.2-0.9,0.2c-0.3,0-0.6,0-0.7,0.1
			c-0.3,0.2-0.3,0.5-0.4,0.8c0,0.2,0.1,0.5,0.2,0.6c0.3,0.5,1,0.4,2.2,0.3c0.6,0,1.2-0.2,1.8-0.6c0.6-0.4,1.3-0.9,1.8-1.6l5.1-6.8
			l0,5.5c0,0.7,0,1.1-0.1,1.3c0,0.1,0,0.2-0.2,0.3c0,0-0.2,0.1-0.6,0.1l-0.2,0c-0.3,0-0.5,0-0.7,0.1c-0.3,0.2-0.3,0.5-0.4,0.8
			c0,0.2,0.1,0.5,0.2,0.6c0.2,0.2,0.4,0.4,0.7,0.4c0,0,0,0,0,0c1.1-0.1,2.1-0.1,2.9-0.1c0.9,0,2,0,3.1,0.1c0,0,0,0,0,0
			c0.3,0,0.5-0.1,0.7-0.4c0.1-0.2,0.2-0.4,0.2-0.7c0-0.2-0.1-0.6-0.3-0.7C227.3,53.1,227.1,53,226.9,53z"/>
		<path fill="#FFFFFF" d="M119.9,77.2c-0.6-0.4-1.2-0.3-1.5,0.2c-0.6,0.9-1.2,1.6-2,2.1c-0.7,0.4-1.6,0.6-2.6,0.6
			c-1.3,0-2.4-0.4-3.4-1.1c-1-0.7-1.8-1.7-2.3-3c-0.5-1.3-0.8-2.7-0.8-4.2c0-1.8,0.3-3.4,0.8-4.6c0.5-1.3,1.2-2.2,2.1-2.9
			c0.9-0.6,1.9-1,3-1c1,0,1.8,0.2,2.3,0.7c0.5,0.5,0.8,1.1,0.8,1.9c0,0.4-0.1,0.7-0.3,1c-0.2,0.3-0.4,0.5-0.6,0.6
			c-0.4,0.3-0.6,0.4-0.6,0.6c0,0.2,0,0.4,0.2,0.7c0.2,0.2,0.4,0.4,0.7,0.6c0.3,0.2,0.7,0.2,1.1,0.2c1.1,0,1.9-0.4,2.6-1.1
			c0.6-0.7,0.9-1.6,0.9-2.6c0-1.6-0.8-2.8-2.2-3.6c-1.4-0.7-3-1.1-4.8-1.1c-2.1,0-3.9,0.4-5.4,1.3c-1.5,0.9-2.8,2.2-3.6,3.8
			c-0.8,1.6-1.3,3.5-1.3,5.6c0,2.1,0.4,3.9,1.3,5.5c0.9,1.6,2.1,2.8,3.5,3.6c1.5,0.8,3.1,1.3,4.9,1.3c1.2,0,2.2-0.1,3-0.3
			c0.8-0.2,1.6-0.6,2.3-1.1c0.7-0.5,1.4-1.3,2.2-2.2c0.2-0.2,0.2-0.4,0.2-0.6C120.6,77.9,120.4,77.5,119.9,77.2z"/>
		<path fill="#FFFFFF" d="M137.9,67.2L137.9,67.2l-0.6,0c-0.9,0-1.5,0.1-1.9,0.1c-0.8,0-1.8,0-2.9-0.1c-0.3,0-0.5,0.1-0.7,0.4
			c-0.1,0.2-0.2,0.4-0.2,0.6c0,0.4,0.1,0.6,0.3,0.7c0.1,0.1,0.3,0.2,0.6,0.2h0.2c0.5,0,0.8,0.1,0.9,0.1c0,0,0.1,0,0.1,0.1
			c0,0,0,0.2-0.1,0.6l-2.7,7.1c-0.4-1-1-2.3-1.6-4c-0.3-0.9-0.7-1.9-1.2-3c-0.5-1.1-1.1-1.9-1.9-2.3c-0.7-0.4-1.6-0.6-2.6-0.6
			c-0.2,0-0.3,0-0.5,0c-0.1,0-0.2,0-0.4,0c-0.2,0-0.4,0.1-0.6,0.1c-0.2,0.1-0.4,0.3-0.4,0.8c0,0.3,0,0.5,0.1,0.6
			c0.1,0.1,0.2,0.3,0.6,0.4c0.1,0,0.2,0,0.3,0.1c0.5,0.1,0.9,0.2,1.1,0.5c0.3,0.3,0.6,0.8,0.9,1.5c0.5,1.1,1.2,2.8,2,5
			c0.9,2.4,1.6,4.1,2,5c0.1,0.3,0.1,0.5,0.1,0.6c0,0.1,0,0.2-0.1,0.5c-1.1,2.4-2.3,3.7-3.4,3.7c-0.3,0-0.6-0.1-0.8-0.3
			c-0.2-0.2-0.3-0.5-0.3-0.8c0-0.4,0.1-0.5,0.1-0.6c0.2-0.2,0.4-0.4,0.4-0.6c0-0.4-0.4-0.6-0.5-0.7c-0.5-0.3-1.2-0.5-2.4,0.1
			c-0.6,0.3-1,1-1,2.1c0,0.9,0.4,1.6,1.2,2.3c0.7,0.6,1.6,0.9,2.6,0.9c1.5,0,2.7-0.7,3.8-2c1-1.2,1.9-2.8,2.6-4.5
			c0.5-1.2,1.3-3.1,2.3-5.6l2.2-5.5c0.2-0.6,0.5-1,0.9-1.2c0.3-0.2,0.9-0.3,1.5-0.3c0.2,0,0.4-0.1,0.6-0.2c0.2-0.2,0.3-0.5,0.3-0.8
			c0-0.2-0.1-0.4-0.2-0.6C138.5,67.4,138.2,67.2,137.9,67.2z"/>
		<path fill="#FFFFFF" d="M152.2,74.4c-0.3-0.2-0.6-0.3-0.9-0.4c0.4-0.2,0.7-0.4,1.1-0.7c0.7-0.6,1.1-1.4,1.1-2.4
			c0-1.3-0.5-2.3-1.5-2.8c-0.9-0.5-2.2-0.7-3.9-0.7h-4.4c-0.9,0-1.9,0-3.1-0.1c-0.3,0-0.5,0.1-0.7,0.3c-0.1,0.2-0.2,0.4-0.2,0.7
			c0,0.3,0.1,0.6,0.3,0.7c0.1,0.1,0.3,0.2,0.6,0.2h0.2c0.6,0,0.8,0.1,0.9,0.2c0.1,0.1,0.2,0.3,0.3,0.4c0,0.2,0.1,0.5,0.1,1.1v7.5
			c0,0.6,0,0.9-0.1,1.1c0,0.1-0.1,0.3-0.3,0.4c-0.1,0.1-0.3,0.2-0.9,0.2c-0.3,0-0.6,0-0.7,0.1c-0.3,0.2-0.3,0.5-0.4,0.8
			c0,0.2,0.1,0.5,0.2,0.7c0.2,0.2,0.4,0.3,0.7,0.3c0,0,0,0,0,0c3.9-0.2,6-0.1,6.6-0.1h0.7c1.6,0,3.1-0.3,4.4-0.9c1.3-0.7,2-1.7,2-3
			c0-0.7-0.2-1.3-0.5-1.9C153.4,75.3,152.9,74.8,152.2,74.4z M148.7,72.8c-0.7,0.3-1.6,0.4-2.6,0.4h-0.6V69h1.7
			c0.8,0,1.4,0.2,1.8,0.6c0.4,0.4,0.6,0.9,0.6,1.5C149.6,72,149.3,72.6,148.7,72.8z M145.5,75h0.6c1.5,0,2.6,0.3,3.3,0.8
			c0.7,0.5,1,1.2,1,1.9c0,0.7-0.3,1.3-0.8,1.7c-0.5,0.5-1.3,0.7-2.3,0.7c-0.6,0-1.1-0.1-1.4-0.3c-0.3-0.2-0.4-0.5-0.4-1V75z"/>
		<path fill="#FFFFFF" d="M169.7,77.5c-0.3-0.3-0.7-0.4-1.2,0.1c-0.5,0.8-1,1.4-1.6,1.8c-0.5,0.3-1.2,0.5-2,0.5
			c-1.5,0-2.6-0.5-3.3-1.5c-0.7-0.9-1-2.2-1.1-3.8h6.9c0.8,0,1.4-0.1,1.8-0.4c0.5-0.3,0.7-0.9,0.7-1.7c-0.1-1.6-0.7-3-1.8-3.9
			c-1-1-2.5-1.5-4.4-1.5c-1.4,0-2.7,0.4-3.7,1.1c-1.1,0.7-1.9,1.7-2.5,2.8c-0.6,1.1-0.9,2.4-0.9,3.6c0,1.4,0.3,2.7,0.9,3.9
			c0.6,1.2,1.4,2.1,2.5,2.8c1.1,0.7,2.5,1,4,1c1.3,0,2.4-0.3,3.4-0.9c1-0.6,1.8-1.4,2.5-2.5c0.1-0.1,0.1-0.3,0.1-0.5
			C170.2,77.9,170,77.6,169.7,77.5z M163.8,68.8c0.8,0,1.4,0.3,1.8,0.8c0.5,0.6,0.7,1.3,0.7,2.1c0,0.4-0.2,0.9-1.2,0.9h-4.5
			c0.1-1.1,0.5-2.1,1-2.7C162.1,69.2,162.9,68.8,163.8,68.8z"/>
		<path fill="#FFFFFF" d="M187.3,69.7c0-0.1,0.1-0.3,0.3-0.4c0.1-0.1,0.3-0.2,0.9-0.2c0.3,0,0.6,0,0.7-0.1c0.3-0.2,0.3-0.5,0.4-0.8
			c0-0.2-0.1-0.5-0.2-0.6c-0.2-0.2-0.4-0.4-0.7-0.4c0,0,0,0,0,0c-1.2,0.1-2.2,0.1-3.1,0.1c-0.8,0-1.8,0-2.9-0.1
			c-0.3,0-0.5,0.1-0.7,0.4c-0.1,0.2-0.2,0.4-0.2,0.7c0,0.4,0.1,0.6,0.3,0.7c0.1,0.1,0.3,0.2,0.6,0.2l0.3,0c0.4,0,0.5,0.1,0.6,0.1
			c0.1,0.1,0.2,0.3,0.2,0.7c0,0.5,0,0.7,0,0.9v2.4h-5.6l0-2.3c0-0.7,0-1.1,0.1-1.3c0-0.1,0-0.2,0.2-0.3c0,0,0.2-0.1,0.6-0.1l0.2,0
			c0.3,0,0.5,0,0.7-0.1c0.3-0.2,0.3-0.5,0.4-0.8c0-0.2-0.1-0.5-0.2-0.6c-0.2-0.2-0.4-0.4-0.7-0.4c0,0,0,0,0,0
			c-1.1,0.1-2.1,0.1-2.9,0.1c-0.9,0-2,0-3.1-0.1c-0.3,0-0.5,0.1-0.7,0.4c-0.1,0.2-0.2,0.4-0.2,0.7c0,0.4,0.1,0.6,0.3,0.7
			c0.1,0.1,0.4,0.2,0.6,0.2h0.2c0.4,0,0.7,0.1,0.9,0.2c0.2,0.1,0.2,0.4,0.2,0.7v8.2c0,0.6,0,1,0,1.1c0,0.1-0.1,0.3-0.2,0.4
			c-0.1,0.1-0.3,0.2-0.9,0.2c-0.3,0-0.6,0-0.7,0.1c-0.3,0.2-0.3,0.5-0.4,0.8c0,0.2,0.1,0.5,0.2,0.6c0.2,0.2,0.4,0.4,0.7,0.4
			c0,0,0,0,0,0c1.2-0.1,2.2-0.1,3.1-0.1c0.8,0,1.7,0,2.9,0.1c0.3,0,0.5-0.1,0.7-0.4c0.1-0.2,0.2-0.4,0.2-0.7c0-0.2-0.1-0.6-0.3-0.7
			c-0.1-0.1-0.3-0.2-0.6-0.2l-0.3,0c-0.4,0-0.5-0.1-0.6-0.1c-0.1-0.1-0.2-0.3-0.2-0.7c0-0.5,0-0.7,0-0.9v-3.1h5.6l0,3.1
			c0,0.7,0,1.1-0.1,1.3c0,0.1,0,0.2-0.2,0.3c0,0-0.2,0.1-0.6,0.1l-0.2,0c-0.3,0-0.5,0-0.7,0.1c-0.3,0.2-0.3,0.5-0.4,0.8
			c0,0.2,0.1,0.5,0.2,0.6c0.2,0.2,0.4,0.4,0.7,0.4c0,0,0,0,0,0c1.2-0.1,2.1-0.1,2.9-0.1c0.9,0,1.9,0,3.1,0.1c0,0,0,0,0,0
			c0.3,0,0.5-0.1,0.7-0.4c0.1-0.2,0.2-0.4,0.2-0.7c0-0.2-0.1-0.6-0.3-0.7c-0.2-0.1-0.3-0.2-0.6-0.2h-0.2c-0.6,0-0.8-0.1-0.9-0.2
			c-0.1-0.1-0.2-0.3-0.3-0.4c0-0.2-0.1-0.5-0.1-1.1v-7.5C187.2,70.2,187.3,69.9,187.3,69.7z"/>
		<path fill="#FFFFFF" d="M206.1,69.7c0-0.1,0.1-0.3,0.3-0.4c0.1-0.1,0.3-0.2,0.9-0.2c0.3,0,0.6,0,0.7-0.1c0.3-0.2,0.3-0.5,0.4-0.8
			c0-0.2-0.1-0.5-0.2-0.6c-0.2-0.2-0.4-0.4-0.7-0.4h0l-1.4,0.1c-0.6,0.1-1.2,0.3-1.8,0.6c-0.6,0.3-1.3,1-2,1.9l-5,6.9l0-5.9
			c0-0.7,0-1.1,0.1-1.3c0-0.1,0-0.2,0.2-0.3c0,0,0.2-0.1,0.6-0.1l0.2,0c0.3,0,0.5,0,0.7-0.1c0.3-0.2,0.3-0.5,0.4-0.8
			c0-0.2-0.1-0.5-0.2-0.6c-0.2-0.2-0.4-0.4-0.7-0.4c0,0,0,0,0,0c-1.1,0.1-2.1,0.1-2.9,0.1c-0.9,0-2,0-3.1-0.1
			c-0.3,0-0.5,0.1-0.7,0.4c-0.1,0.2-0.2,0.4-0.2,0.7c0,0.4,0.1,0.6,0.3,0.7c0.1,0.1,0.4,0.2,0.6,0.2h0.2c0.4,0,0.7,0.1,0.9,0.2
			c0.2,0.1,0.2,0.4,0.2,0.7v8.2c0,0.6,0,1,0,1.1c0,0.1-0.1,0.3-0.2,0.4c-0.1,0.1-0.3,0.2-0.9,0.2c-0.3,0-0.6,0-0.7,0.1
			c-0.3,0.2-0.3,0.5-0.4,0.8c0,0.2,0.1,0.5,0.2,0.6c0.3,0.5,1,0.4,2.2,0.3c0.6,0,1.2-0.2,1.8-0.6c0.6-0.4,1.3-0.9,1.8-1.6l5.1-6.8
			l0,5.5c0,0.7,0,1.1-0.1,1.3c0,0.1,0,0.2-0.2,0.3c0,0-0.2,0.1-0.6,0.1l-0.2,0c-0.3,0-0.5,0-0.7,0.1c-0.3,0.2-0.3,0.5-0.4,0.8
			c0,0.2,0.1,0.5,0.2,0.6c0.2,0.2,0.4,0.4,0.7,0.4c0,0,0,0,0,0c1.2-0.1,2.1-0.1,2.9-0.1c0.9,0,1.9,0,3.1,0.1c0,0,0,0,0,0
			c0.3,0,0.5-0.1,0.7-0.4c0.1-0.2,0.2-0.4,0.2-0.7c0-0.2-0.1-0.6-0.3-0.7c-0.1-0.1-0.3-0.2-0.6-0.2h-0.2c-0.6,0-0.8-0.1-0.9-0.2
			c-0.1-0.1-0.2-0.2-0.3-0.4c0-0.2-0.1-0.6-0.1-1.1v-7.5C206,70.3,206.1,70,206.1,69.7z"/>
		<path fill="#FFFFFF" d="M223.1,67.9c-1-0.6-2.2-1-3.5-1c-0.8,0-1.6,0.2-2.4,0.6c-0.6,0.3-1.1,0.6-1.6,0.9v-0.7c0-0.7-0.5-1-0.9-1
			c0,0-0.1,0-0.2,0c-0.1,0-0.4,0.1-0.8,0.2c-0.8,0.3-1.9,0.6-3.1,0.8c-0.3,0-0.5,0.2-0.6,0.4c-0.1,0.2-0.2,0.4-0.2,0.6
			c0,0.4,0.1,0.7,0.4,0.8c0.2,0.1,0.4,0.2,0.7,0.2c0.6,0,0.8,0.1,0.9,0.2c0.1,0.1,0.2,0.2,0.2,0.4c0,0.2,0,0.6,0,1.1v13.1
			c0,0.5,0,0.8-0.1,1c0,0.2-0.1,0.3-0.3,0.4c-0.1,0.1-0.3,0.2-0.8,0.2c-0.3,0-0.6,0-0.7,0.1c-0.3,0.2-0.3,0.5-0.4,0.8
			c0,0.2,0.1,0.5,0.2,0.7c0.2,0.2,0.4,0.3,0.7,0.3c0,0,0,0,0,0c1.2-0.1,2.2-0.1,3.1-0.1c0.9,0,2,0,3.1,0.1c0,0,0,0,0,0
			c0.3,0,0.5-0.1,0.7-0.4c0.1-0.2,0.2-0.4,0.2-0.7c0-0.2-0.1-0.6-0.3-0.7c-0.1-0.1-0.3-0.2-0.6-0.2h-0.2c-0.5,0-0.8-0.1-0.8-0.2
			c-0.2-0.1-0.2-0.3-0.3-0.4c0-0.2-0.1-0.6-0.1-1v-3.1c0.4,0.2,0.7,0.3,1.2,0.5c0.6,0.2,1.3,0.3,2.2,0.3c1.2,0,2.5-0.3,3.6-1
			c1.1-0.6,2-1.5,2.7-2.7c0.7-1.2,1-2.5,1-4c0-1.4-0.3-2.8-0.9-3.9C224.9,69.5,224.1,68.6,223.1,67.9z M222.5,74.6
			c0,1.5-0.3,2.9-0.9,4c-0.6,1.1-1.5,1.7-2.7,1.7c-0.8,0-1.5-0.2-2-0.6c-0.5-0.4-0.9-0.8-1.1-1.3v-7.8c0.4-0.4,0.8-0.7,1.3-1
			c0.4-0.2,1-0.4,1.6-0.4c1.3,0,2.2,0.5,2.9,1.5C222.2,71.8,222.5,73.1,222.5,74.6z"/>
	</g>
</g>
</svg>
