<?xml version="1.0" encoding="utf-8"?>
<!-- Generator: Adobe Illustrator 18.1.1, SVG Export Plug-In . SVG Version: 6.00 Build 0)  -->
<svg version="1.1" id="Layer_1" xmlns="http://www.w3.org/2000/svg" xmlns:xlink="http://www.w3.org/1999/xlink" x="0px" y="0px"
	 viewBox="0 0 35 35" enable-background="new 0 0 35 35" xml:space="preserve">
<g>
	<g>
		<g>
			<path fill="#FFFFFF" stroke="#FFFFFF" stroke-width="0.2" stroke-miterlimit="10" d="M20.3,14.2c-0.3,0-0.6,0.3-0.6,0.6
				s0.3,0.6,0.6,0.6s0.6-0.3,0.6-0.6S20.7,14.2,20.3,14.2z"/>
		</g>
	</g>
	<g>
		<g>
			<path fill="#FFFFFF" stroke="#FFFFFF" stroke-width="0.2" stroke-miterlimit="10" d="M32.2,30l-8.3-8.3c1.4-2,2.1-4.4,2.1-6.9
				c0-6.9-5.6-12.5-12.5-12.5S1,7.9,1,14.8s5.6,12.5,12.5,12.5c2.5,0,4.8-0.7,6.9-2.1l2.3,2.3l0,0l6,6c0.5,0.5,1.1,0.7,1.8,0.7
				s1.3-0.3,1.8-0.7c0.5-0.5,0.7-1.1,0.7-1.8C33,31.1,32.7,30.5,32.2,30z M20.1,23.9L20.1,23.9c-1.9,1.4-4.2,2.1-6.6,2.1
				C7.3,26,2.2,21,2.2,14.8s5-11.3,11.3-11.3s11.3,5,11.3,11.3c0,2.4-0.7,4.7-2.1,6.6C21.9,22.4,21,23.2,20.1,23.9z M21.4,24.5
				c0.6-0.5,1.2-1.1,1.8-1.8l1.8,1.8c-0.5,0.6-1.1,1.2-1.8,1.8L21.4,24.5z M31.3,32.7c-0.2,0.2-0.6,0.4-0.9,0.4s-0.6-0.1-0.9-0.4
				L24,27.1c0.6-0.5,1.2-1.1,1.8-1.8l5.5,5.5c0.2,0.2,0.4,0.5,0.4,0.9S31.6,32.4,31.3,32.7z"/>
		</g>
	</g>
	<g>
		<g>
			<path fill="#FFFFFF" stroke="#FFFFFF" stroke-width="0.2" stroke-miterlimit="10" d="M13.5,4.8c-5.5,0-10,4.5-10,10s4.5,10,10,10
				s10-4.5,10-10S19,4.8,13.5,4.8z M13.5,23.5c-4.8,0-8.8-3.9-8.8-8.8S8.6,6,13.5,6s8.8,3.9,8.8,8.8S18.3,23.5,13.5,23.5z"/>
		</g>
	</g>
	<g>
		<g>
			<path fill="#FFFFFF" stroke="#FFFFFF" stroke-width="0.2" stroke-miterlimit="10" d="M20.5,12.1c-0.5-1.4-1.5-2.6-2.7-3.5
				c-1.3-0.9-2.7-1.4-4.3-1.4c-0.3,0-0.6,0.3-0.6,0.6s0.3,0.6,0.6,0.6c2.6,0,4.9,1.6,5.8,4c0.1,0.2,0.3,0.4,0.6,0.4
				c0.1,0,0.2,0,0.2,0C20.4,12.8,20.6,12.4,20.5,12.1z"/>
		</g>
	</g>
</g>
</svg>
