<svg xmlns="http://www.w3.org/2000/svg" width="19.868" height="16.859"><path data-name="Контур 446" d="M19.527.512A1.633 1.633 0 0017.62.147L1.101 6.452c-.979.374-1.11.96-1.1 1.276s.173.894 1.192 1.218l3.339.956 1.823 5.213a1.771 1.771 0 001.646 1.289 1.928 1.928 0 001.305-.551l2.007-1.849 2.956 2.38.041.033a1.946 1.946 0 001.187.442 1.684 1.684 0 001.617-1.484L19.82 2.01a1.766 1.766 0 00-.293-1.498zm-9.393 12.543l-1.5 1.378.532-2.155zm1.465-6.242L8.18 10.447a.752.752 0 00-.182.333l-.652 2.64-1.315-3.762zm4.046-2.116a.747.747 0 00.054-.962.748.748 0 00-.939-.216l-9.729 4.97-2.9-.829 16.021-6.116a.705.705 0 01.216-.05.739.739 0 01-.017.22l-2.706 13.364c-.037.178-.1.285-.151.285a.507.507 0 01-.264-.124l-5.409-4.355z" fill="#fff"/></svg>